HIERARCHY
ROOT Hips
{
	OFFSET 0.00000 0.00000 0.00000
	CHANNELS 6 Xposition Yposition Zposition Zrotation Yrotation Xrotation 
	JOINT LHipJoint
	{
		OFFSET 0 0 0
		CHANNELS 3 Zrotation Yrotation Xrotation
		JOINT LeftUpLeg
		{
			OFFSET 1.58161 -1.81893 0.78828
			CHANNELS 3 Zrotation Yrotation Xrotation
			JOINT LeftLeg
			{
				OFFSET 2.53374 -6.96141 0.00000
				CHANNELS 3 Zrotation Yrotation Xrotation
				JOINT LeftFoot
				{
					OFFSET 2.63509 -7.23986 0.00000
					CHANNELS 3 Zrotation Yrotation Xrotation
					JOINT LeftToeBase
					{
						OFFSET 0.14115 -0.38781 2.05350
						CHANNELS 3 Zrotation Yrotation Xrotation
						End Site
						{
							OFFSET 0.00000 -0.00000 1.05543
						}
					}
				}
			}
		}
	}
	JOINT RHipJoint
	{
		OFFSET 0 0 0
		CHANNELS 3 Zrotation Yrotation Xrotation
		JOINT RightUpLeg
		{
			OFFSET -1.11138 -1.81893 0.78828
			CHANNELS 3 Zrotation Yrotation Xrotation
			JOINT RightLeg
			{
				OFFSET -2.58392 -7.09926 0.00000
				CHANNELS 3 Zrotation Yrotation Xrotation
				JOINT RightFoot
				{
					OFFSET -2.66423 -7.31992 0.00000
					CHANNELS 3 Zrotation Yrotation Xrotation
					JOINT RightToeBase
					{
						OFFSET -0.18831 -0.51739 2.12114
						CHANNELS 3 Zrotation Yrotation Xrotation
						End Site
						{
							OFFSET -0.00000 -0.00000 1.09845
						}
					}
				}
			}
		}
	}
	JOINT LowerBack
	{
		OFFSET 0 0 0
		CHANNELS 3 Zrotation Yrotation Xrotation
		JOINT Spine
		{
			OFFSET -0.01511 1.97958 -0.08829
			CHANNELS 3 Zrotation Yrotation Xrotation
			JOINT Spine1
			{
				OFFSET 0.08344 1.97334 -0.04330
				CHANNELS 3 Zrotation Yrotation Xrotation
				JOINT Neck
				{
					OFFSET 0 0 0
					CHANNELS 3 Zrotation Yrotation Xrotation
					JOINT Neck1
					{
						OFFSET 0.00559 1.76246 0.31246
						CHANNELS 3 Zrotation Yrotation Xrotation
						JOINT Head
						{
							OFFSET -0.07011 1.80354 -0.30524
							CHANNELS 3 Zrotation Yrotation Xrotation
							End Site
							{
								OFFSET -0.02385 1.83547 -0.13906
							}
						}
					}
				}
				JOINT LeftShoulder
				{
					OFFSET 0 0 0
					CHANNELS 3 Zrotation Yrotation Xrotation
					JOINT LeftArm
					{
						OFFSET 3.20667 1.30156 -0.60240
						CHANNELS 3 Zrotation Yrotation Xrotation
						JOINT LeftForeArm
						{
							OFFSET 4.95663 -0.00000 0.00000
							CHANNELS 3 Zrotation Yrotation Xrotation
							JOINT LeftHand
							{
								OFFSET 3.38177 -0.00000 0.00000
								CHANNELS 3 Zrotation Yrotation Xrotation
								JOINT LeftFingerBase
								{
									OFFSET 0 0 0
									CHANNELS 3 Zrotation Yrotation Xrotation
									JOINT LeftHandIndex1
									{
										OFFSET 0.66291 -0.00000 0.00000
										CHANNELS 3 Zrotation Yrotation Xrotation
										End Site
										{
											OFFSET 0.53445 -0.00000 0.00000
										}
									}
								}
								JOINT LThumb
								{
									OFFSET 0 0 0
									CHANNELS 3 Zrotation Yrotation Xrotation
									End Site
									{
										OFFSET 0.54261 -0.00000 0.54261
									}
								}
							}
						}
					}
				}
				JOINT RightShoulder
				{
					OFFSET 0 0 0
					CHANNELS 3 Zrotation Yrotation Xrotation
					JOINT RightArm
					{
						OFFSET -3.06877 1.34672 -0.60964
						CHANNELS 3 Zrotation Yrotation Xrotation
						JOINT RightForeArm
						{
							OFFSET -5.08365 -0.00000 0.00000
							CHANNELS 3 Zrotation Yrotation Xrotation
							JOINT RightHand
							{
								OFFSET -3.35984 -0.00000 0.00000
								CHANNELS 3 Zrotation Yrotation Xrotation
								JOINT RightFingerBase
								{
									OFFSET 0 0 0
									CHANNELS 3 Zrotation Yrotation Xrotation
									JOINT RightHandIndex1
									{
										OFFSET -0.82076 -0.00000 0.00000
										CHANNELS 3 Zrotation Yrotation Xrotation
										End Site
										{
											OFFSET -0.66172 -0.00000 0.00000
										}
									}
								}
								JOINT RThumb
								{
									OFFSET 0 0 0
									CHANNELS 3 Zrotation Yrotation Xrotation
									End Site
									{
										OFFSET -0.67182 -0.00000 0.67182
									}
								}
							}
						}
					}
				}
			}
		}
	}
}
MOTION
Frames: 7
Frame Time: .0083333
0.076 17.8812 -9.5604 0 0 0 0 0 0 -21 0 0 0 0 0 0 0 0 0 0 0 0 0 0 21 0 0 0 0 0 0 0 0 0 0 0 0 0 0 0 0 0 0 0 0 0 0 -16 0 0 21 0 0 11 0 0 0 -8 0 0 0 0 0 0 0 0 0 0 0 0 0 0 0 0 0 0 0 0 8 0 0 0 0 0 0 0 0 0 0 0 0 0 0 0 0 0
0.0760 17.8812 -9.5604 -5.6794 -0.8541 8.0405 0.0000 0.0000 0.0000 -10.5740 -3.3777 -13.6415 2.7456 10.2715 29.8603 1.2201 -5.2655 -19.8014 0.2289 -3.0793 -8.4997 0.0000 0.0000 0.0000 22.2313 7.7764 -13.5957 -2.5324 -9.8966 28.6426 -0.9716 0.6568 -18.4240 -0.0133 -0.7459 2.0500 -1.1041 -0.1316 -9.1096 4.5050 -0.2719 -0.7266 5.3086 -0.1979 4.3869 -0.1881 -1.3572 -19.3856 -3.7545 -0.5124 36.9509 -1.7294 -0.7955 16.5669 -0.0000 -0.0000 0.0000 -89.2246 -3.7024 30.9998 11.8482 -19.5766 -2.0512 -0.0000 -0.0000 2.2661 34.6511 16.8555 11.3326 -7.1250 0.0000 -0.0000 6.8143 50.0759 0.8561 -0.0000 -0.0000 0.0000 85.1300 0.4282 26.2328 -13.6858 22.2837 -2.7078 0.0000 -0.0000 -7.5307 -19.8611 8.7817 -3.1566 7.1250 -0.0000 -0.0000 5.0646 -20.6689 2.9624
0.0754 17.8783 -9.5601 -5.8550 -0.8997 7.9850 0.0000 0.0000 0.0000 -10.3966 -3.2111 -13.7003 2.7551 10.2877 29.9134 1.2154 -5.2750 -19.7616 0.1864 -2.7804 -7.6680 0.0000 0.0000 0.0000 22.4286 7.7075 -13.5534 -2.5287 -9.8898 28.6207 -0.9504 0.8963 -18.1476 -0.0301 -1.1193 3.0771 -0.8991 -0.0675 -9.1592 4.5111 -0.2104 -0.6655 5.2069 -0.1656 4.4717 -0.1625 -1.3588 -19.3446 -3.7462 -0.5285 36.9160 -1.7313 -0.7967 16.5378 0.0000 -0.0000 0.0000 -89.1595 -3.8155 31.2254 11.8061 -19.5132 -2.0371 -0.0000 -0.0000 2.1732 30.4191 19.9599 11.3336 -7.1250 0.0000 -0.0000 2.0939 52.8063 0.4023 0.0000 -0.0000 0.0000 85.1932 0.5046 26.0929 -13.7187 22.3312 -2.7203 0.0000 -0.0000 -7.5583 -19.7184 8.7933 -3.1361 7.1250 -0.0000 -0.0000 5.1673 -20.6654 3.0234
0.0757 17.8797 -9.5614 -5.8969 -0.9108 7.9902 0.0000 0.0000 0.0000 -10.3541 -3.1642 -13.7679 2.7664 10.3070 29.9766 1.2209 -5.2354 -19.8104 0.2077 -2.9340 -8.0951 0.0000 0.0000 0.0000 22.4736 7.7074 -13.5272 -2.5154 -9.8659 28.5437 -0.9433 0.9103 -18.0743 -0.0335 -1.1819 3.2495 -0.8246 -0.0376 -9.1845 4.4992 -0.1778 -0.6672 5.1560 -0.1479 4.4807 -0.0823 -1.3419 -19.3479 -3.8464 -0.4910 36.9957 -1.7855 -0.7843 16.5803 0.0000 0.0000 0.0000 -89.1386 -3.8259 31.3098 11.8034 -19.5092 -2.0362 -0.0000 -0.0000 2.1300 25.6534 22.9231 10.5954 -7.1250 0.0000 -0.0000 -3.6579 55.0755 -0.9059 0.0000 0.0000 0.0000 85.2180 0.5502 26.0386 -13.7173 22.3292 -2.7198 0.0000 -0.0000 -7.5936 -19.6192 8.7713 -3.1114 7.1250 -0.0000 -0.0000 5.2387 -20.6947 3.0620
0.0765 17.8801 -9.5631 -5.9878 -0.9106 7.9928 0.0000 0.0000 0.0000 -10.2469 -3.1945 -13.7951 2.7803 10.3307 30.0543 1.2256 -5.2881 -19.8460 0.1964 -2.8538 -7.8720 0.0000 0.0000 0.0000 22.5709 7.7158 -13.4891 -2.5017 -9.8410 28.4635 -0.9388 0.9281 -18.0245 -0.0418 -1.3191 3.6272 -0.7062 -0.0131 -9.1876 4.5193 -0.1582 -0.6716 5.1121 -0.1358 4.4757 -0.0920 -1.3311 -19.3961 -3.8715 -0.4560 37.1287 -1.7936 -0.7749 16.6631 -0.0000 0.0000 0.0000 -89.1689 -3.8207 31.2776 11.8119 -19.5219 -2.0390 -0.0000 -0.0000 2.2175 20.4592 25.6803 9.1836 -7.1250 0.0000 -0.0000 -10.2657 56.8520 -3.0035 -0.0000 0.0000 0.0000 85.2000 0.5755 26.0587 -13.7422 22.3649 -2.7292 0.0000 -0.0000 -7.6817 -19.6654 8.7599 -3.1153 7.1250 -0.0000 -0.0000 5.2054 -20.7039 3.0413
0.0790 17.8837 -9.5676 -6.1350 -0.9414 8.0294 0.0000 0.0000 0.0000 -10.0899 -3.2197 -13.8405 2.7894 10.3460 30.1048 1.2277 -5.3439 -19.8590 0.1680 -2.6404 -7.2793 0.0000 0.0000 0.0000 22.7107 7.7542 -13.5074 -2.4929 -9.8250 28.4118 -0.9313 0.9946 -17.9323 -0.0539 -1.4977 4.1193 -0.5211 0.0195 -9.1755 4.5613 -0.1351 -0.6867 5.0533 -0.1205 4.4507 -0.1161 -1.3218 -19.4472 -3.9007 -0.4167 37.2369 -1.7995 -0.7667 16.7343 0.0000 -0.0000 0.0000 -89.2258 -3.8242 31.2386 11.8331 -19.5539 -2.0461 -0.0000 -0.0000 2.2700 9.1918 30.6426 4.7148 -7.1250 0.0000 -0.0000 -25.2124 59.1286 -9.0613 0.0000 -0.0000 0.0000 85.1634 0.6088 26.0416 -13.7342 22.3534 -2.7262 0.0000 -0.0000 -7.7928 -19.8488 9.3641 -3.3614 7.1250 -0.0000 -0.0000 5.0772 -20.0550 3.0401
0.0832 17.8880 -9.5728 -6.1839 -1.0300 8.1148 0.0000 0.0000 0.0000 -10.0682 -3.2449 -13.9221 2.7939 10.3536 30.1296 1.2288 -5.3151 -19.8702 0.1497 -2.4928 -6.8698 0.0000 0.0000 0.0000 22.7142 7.7594 -13.6379 -2.4915 -9.8225 28.4038 -0.9253 1.1205 -17.8377 -0.0562 -1.5293 4.2065 -0.4265 0.0460 -9.1920 4.5792 -0.1093 -0.7226 5.0212 -0.1052 4.4199 -0.1392 -1.3226 -19.4793 -3.9956 -0.3682 37.2972 -1.8311 -0.7644 16.7763 0.0000 0.0000 0.0000 -89.2806 -3.8255 31.2437 11.8236 -19.5396 -2.0429 -0.0000 -0.0000 2.0952 9.3558 30.7526 4.8155 -7.1250 0.0000 -0.0000 -25.1358 59.2640 -9.1140 0.0000 0.0000 0.0000 85.1083 0.6381 26.0426 -13.6697 22.2606 -2.7017 0.0000 -0.0000 -7.8929 -20.0088 10.3498 -3.7430 7.1250 -0.0000 -0.0000 4.9748 -19.0036 3.0954
